# xmcd
#
# Track frame offsets: 
#        150
#        15364
#        36436
#        56806
#        76457
#        98877
#        129557
#        142324
#        156648
#        179210
#        200260
#        214908
#
# Disc length: 3464 seconds
#
# Revision: 1
# Processed by: cddbd v1.5.2PL0 Copyright (c) Steve Scherf et al.
# Submitted via: ExactAudioCopy v1.0b3
#
DISCID=ba0d860c
DTITLE=The Veldman Brothers - Bringin' It To You Live
DYEAR=2012
DGENRE=Blues
TTITLE0=2 Times 360
TTITLE1=Country Boy
TTITLE2=Need To Know
TTITLE3=I Believe I’m In Love With You 
TTITLE4=Up From The Skies
TTITLE5=Boom Boom
TTITLE6=Feelin' Bad Blues
TTITLE7=Target
TTITLE8=Heading For The Door
TTITLE9=Killing Floor
TTITLE10=Tell Me Baby
TTITLE11=Boogie
EXTD=
EXTT0=
EXTT1=
EXTT2=
EXTT3=
EXTT4=
EXTT5=
EXTT6=
EXTT7=
EXTT8=
EXTT9=
EXTT10=
EXTT11=
PLAYORDER=
